<svg width="23" height="32" viewBox="0 0 23 32" fill="none" xmlns="http://www.w3.org/2000/svg">
<path fill-rule="evenodd" clip-rule="evenodd" d="M16.6225 22.4402C15.6642 23.2597 13.7515 23.8185 11.5483 23.8185C8.84418 23.8185 6.57766 22.9767 5.97623 21.8445C5.76122 22.4933 5.71301 23.236 5.71301 23.7104C5.71301 23.7104 5.57137 26.0399 7.19158 27.6601C7.19158 26.8188 7.87358 26.1368 8.71486 26.1368C10.1569 26.1368 10.1552 27.3948 10.1539 28.4155L10.1538 28.5066C10.1538 30.0558 11.1007 31.3838 12.4472 31.9436C12.2461 31.5299 12.1333 31.0654 12.1333 30.5745C12.1333 29.097 13.0007 28.5468 14.0089 27.9074C14.811 27.3987 15.7022 26.8335 16.3164 25.6996C16.6369 25.1081 16.8189 24.4305 16.8189 23.7104C16.8189 23.2675 16.7501 22.8408 16.6225 22.4402Z" fill="#FF5D01"/>
<path fill-rule="evenodd" clip-rule="evenodd" d="M15.9269 0.800367C16.1878 1.12429 16.3209 1.56133 16.587 2.43546L22.4 21.5314C20.2165 20.3983 17.873 19.6049 15.4502 19.1785L11.6653 6.38823C11.6352 6.28619 11.5728 6.19666 11.4875 6.13303C11.4022 6.06941 11.2986 6.03511 11.1922 6.03528C11.0858 6.03544 10.9823 6.07006 10.8972 6.13395C10.8121 6.19784 10.75 6.28756 10.7201 6.38969L6.9811 19.1721C4.54739 19.5964 2.19305 20.3912 0 21.5285L5.8416 2.43102C6.1085 1.55839 6.24198 1.12207 6.50287 0.798792C6.73323 0.513381 7.03284 0.291714 7.37314 0.154912C7.75863 0 8.21489 0 9.12743 0H13.2998C14.2135 0 14.6704 1.70674e-08 15.0562 0.15527C15.3968 0.292331 15.6966 0.514435 15.9269 0.800367Z" fill="white"/>
</svg>
