<svg width="409" height="104" viewBox="0 0 409 104" fill="none" xmlns="http://www.w3.org/2000/svg">
<path d="M350.018 83.3855C349.184 82.472 349.104 79.4533 349.779 76.6333C349.978 75.8787 350.335 74.2502 350.614 73.0586C350.852 71.8671 351.209 70.1989 351.408 69.4045C352.163 66.4256 352.679 64.5191 352.997 63.5261C354.069 60.0309 354.268 59.1968 354.109 58.7599C354.029 58.4819 352.679 59.316 350.812 60.8253C341.518 68.2527 338.777 69.8811 335.759 69.8811C331.985 69.8811 330.913 68.4115 331.032 63.4467C331.072 61.7388 330.992 60.3486 330.794 60.3486C330.476 60.3486 328.45 61.7785 327.974 62.3346C327.855 62.4537 327.14 63.0098 326.385 63.5261C325.63 64.0425 324.915 64.5985 324.796 64.7177C324.081 65.5121 317.369 70.04 315.383 71.033C312.047 72.7409 308.869 72.7012 307.082 70.9138C305.652 69.4442 305.414 67.6172 306.327 65.3929C306.645 64.5985 306.923 63.8439 306.923 63.7247C306.923 63.6056 306.009 63.5261 304.897 63.5261C301.799 63.5261 299.893 62.7715 297.589 60.6664C295.246 58.5216 293.816 55.9001 293.816 53.7156C293.816 51.4914 293.339 51.0147 292.346 52.0871C290.678 53.9539 288.176 58.045 285.316 63.5659C280.351 73.2969 279.954 73.9324 278.842 75.124C277.293 76.7525 275.148 76.7128 273.917 75.0048C273.162 73.9324 273.043 73.2572 273.043 69.9209C273.043 65.0354 274.036 60.9047 276.538 55.3838C277.809 52.6035 278.723 51.7297 280.788 51.1736C282.297 50.7764 282.893 50.7764 284.124 51.2531C285.475 51.7694 285.673 52.0474 285.793 53.1993C285.951 54.5497 285.356 57.052 284.601 58.4819C284.402 58.9188 284.323 59.3557 284.442 59.4748C284.72 59.7529 284.641 59.872 286.269 56.774C287.977 53.3979 290.519 49.6643 291.79 48.5125C293.061 47.4003 294.253 47.0826 296.08 47.3606C298.9 47.8372 300.171 50.1806 300.171 54.8675C300.171 56.2973 300.449 58.0847 300.767 58.879C301.402 60.3884 303.587 61.9374 305.096 61.9374C306.208 61.9374 308.909 60.865 308.909 60.4281C308.909 59.2762 315.86 53.4773 318.839 52.1269C323.724 49.9026 330.357 50.3395 333.495 53.0801C334.805 54.232 334.885 54.3908 334.408 55.1852C333.971 55.9399 333.971 56.1782 334.567 56.8137C335.242 57.5683 335.203 57.9258 334.289 60.9444C334.011 61.8182 333.773 63.8042 333.773 65.3135C333.733 68.0938 333.733 68.0938 335.282 68.2129C336.156 68.2924 337.268 68.1732 337.784 67.9349C338.301 67.6966 339.095 67.2994 339.611 67.0611C340.644 66.5845 345.966 62.4537 350.812 58.323C351.765 57.5286 353.156 56.4959 353.91 56.0193C355.062 55.3044 355.459 54.7483 355.936 52.8815C356.293 51.6502 356.73 50.1012 356.929 49.426C357.088 48.7905 357.485 47.4401 357.763 46.4471C359.074 41.8397 362.251 32.7044 362.648 32.2675C362.807 32.1484 362.926 31.7512 362.926 31.4334C362.926 30.9568 361.973 30.8774 356.293 31.1157C336.354 31.8703 334.13 31.8703 332.82 31.1951C331.39 30.4802 330.595 29.2092 330.913 28.2956C331.112 27.819 331.549 27.7396 333.058 27.8984C334.091 28.0573 336.553 27.9779 338.499 27.7793C345.728 26.9849 350.574 26.5877 357.247 26.1905C361.02 25.9919 364.436 25.6345 364.873 25.3962C365.309 25.1976 366.461 23.45 367.415 21.5037C370.791 14.831 373.213 11.0974 376.113 8.23768C377.821 6.49006 378.139 6.33118 379.926 6.33118C381.832 6.33118 383.183 7.12556 383.183 8.23768C383.183 9.82643 378.933 19.2795 376.748 22.4967C376.153 23.4102 375.636 24.4032 375.636 24.7607C375.636 25.555 377.543 25.7139 389.935 25.9919C400.58 26.2303 406.617 26.7069 408.126 27.4615C408.801 27.819 409 28.2559 409 29.4872C409 31.0362 409 31.0362 407.332 30.7582C404.234 30.2816 373.253 30.083 372.101 30.5596C371.108 30.9568 369.281 33.3002 369.281 34.1343C369.281 34.3726 369.122 34.8492 368.924 35.2464C368.368 36.3188 367.494 38.3842 365.905 42.4752C365.111 44.5406 364.316 46.606 364.118 47.0429C363.959 47.4798 363.602 48.4727 363.323 49.2274C363.045 49.9821 362.688 50.975 362.489 51.4119C362.092 52.4049 357.683 65.8695 356.969 68.2924C354.983 75.2829 354.268 78.0235 353.791 80.4066C353.553 81.7173 353.195 83.0677 353.036 83.3855C352.56 84.3387 350.852 84.3387 350.018 83.3855ZM315.542 67.8158C318.759 66.0681 325.472 61.5005 327.378 59.7529C328.252 58.9585 329.563 57.8464 330.278 57.2903C330.953 56.7342 331.549 56.1385 331.549 55.9399C331.549 54.9469 326.226 56.4165 323.923 58.0052C323.366 58.4421 322.771 58.7599 322.612 58.7599C321.937 58.7599 318.322 61.6594 315.383 64.5588C310.855 68.9676 310.935 70.318 315.542 67.8158Z" fill="#B6FFFE"/>
<path d="M174.183 102.331C173.627 101.855 172.952 101.06 172.713 100.584C172.197 99.551 172.157 93.2755 172.634 90.654C172.833 89.6213 173.23 87.5957 173.468 86.1658C173.746 84.7359 174.103 83.0678 174.302 82.3925C174.461 81.757 175.017 79.6122 175.494 77.6263C175.931 75.6801 176.487 73.5353 176.645 72.86C176.844 72.2245 177.202 70.8741 177.44 69.8811C177.718 68.8882 178.075 67.6569 178.234 67.1008C178.393 66.5448 178.751 65.3135 179.029 64.3205C179.307 63.3275 179.823 61.5402 180.22 60.3486C180.578 59.1571 181.332 56.8137 181.809 55.1852C183.159 50.8559 189.713 30.9171 190.11 29.9638C190.309 29.5269 191.143 27.4615 191.937 25.3962C192.732 23.3308 193.685 20.9874 194.003 20.2327C194.32 19.4781 194.757 18.4851 194.916 18.0482C195.075 17.6113 195.949 15.7445 196.823 13.8777C197.736 12.011 198.332 10.3825 198.173 10.2236C198.014 10.1045 197.101 10.1442 196.108 10.3428C195.115 10.5414 193.327 10.8988 192.136 11.0974C190.944 11.3357 189.157 11.6535 188.164 11.8521C187.171 12.0507 185.304 12.4081 183.993 12.6862C182.683 12.9642 180.816 13.3217 179.823 13.5203C178.83 13.7586 176.328 14.0366 174.223 14.1558C170.41 14.3544 170.41 14.3544 168.94 12.9245C167.868 11.8521 167.51 11.1372 167.51 10.1442C167.51 8.99234 167.709 8.75403 169.218 7.99937C170.132 7.56247 171.601 6.96669 172.475 6.68865C173.349 6.45034 174.501 6.09287 175.057 5.89428C175.613 5.7354 177.043 5.37794 178.234 5.09991C179.426 4.86159 180.856 4.50412 181.412 4.34525C183.835 3.59059 191.024 2.59763 199.007 1.96213C201.787 1.76353 206.236 1.40606 208.937 1.16775C222.481 0.095347 229.154 -0.0238091 235.231 0.651409C238.527 1.00888 239.401 1.00888 240.354 0.532253C241.784 -0.142965 244.684 -0.182684 245.836 0.452815C247.782 1.56494 247.941 1.96213 247.861 5.17934C247.782 8.07881 247.623 8.55543 245.279 13.3614C242.817 18.4057 237.217 27.3424 234.079 31.1554C228.796 37.6693 222.64 44.0242 218.152 47.6386C213.385 51.4516 212.988 51.968 211.002 56.5754C210.684 57.33 210.168 58.5613 209.85 59.2762C209.533 59.9515 208.897 61.5402 208.42 62.7318C207.547 64.9957 206.673 67.0611 205.918 68.5704C205.68 69.0868 205.64 69.6031 205.759 69.762C206.077 70.0797 205.918 70.2783 208.023 67.1008C208.977 65.6709 209.85 64.4397 209.97 64.3205C210.089 64.2014 210.962 63.1289 211.916 61.8977C214.537 58.4421 220.694 52.6829 222.838 51.69C224.626 50.8559 224.983 50.8161 226.89 51.2531C229.471 51.8091 230.742 52.8815 231.457 55.1058C231.855 56.4165 231.894 57.0123 231.537 57.7669C231.259 58.323 231.06 59.1174 231.06 59.4748C231.06 59.8323 229.988 62.2551 228.677 64.7971C225.936 70.1989 225.221 72.5423 225.857 73.8133C226.135 74.2899 226.651 74.6474 227.009 74.6474C227.724 74.6474 230.385 73.0983 232.291 71.6288C234.833 69.6031 242.102 62.2154 244.088 59.594C246.352 56.5754 249.251 54.0334 251.436 53.0404C254.256 51.8091 255.249 51.6502 258.426 51.7297C261.564 51.8488 261.802 51.9283 262.716 53.0404C264.186 54.8675 265.218 57.4095 265.218 59.1968C265.218 61.143 263.391 65.1546 261.366 67.4583C258.506 70.8344 252.588 73.853 248.854 73.853C246.908 73.853 243.969 72.4628 242.976 71.0727C242.539 70.4769 241.983 69.1265 241.705 68.0541C241.427 66.9817 241.188 66.0284 241.109 65.949C241.069 65.8695 240.156 66.7036 239.123 67.7363C233.443 73.4955 229.273 76.1964 226.214 76.2361C224.785 76.2361 222.64 74.0913 222.004 71.9862C220.972 68.5704 221.448 65.234 223.871 58.1641C224.546 56.2179 225.102 54.4703 225.102 54.3114C225.102 52.961 220.137 56.1385 216.563 59.7529C214.1 62.2154 213.663 62.7318 211.995 65.1149C211.479 65.8695 210.923 66.5845 210.804 66.7036C210.287 67.1008 205.72 74.131 204.051 77.1099C203.098 78.8178 202.065 80.2874 201.787 80.3669C200.953 80.7243 199.285 79.8902 198.928 78.9767C198.372 77.388 199.881 71.5096 203.257 62.3346C203.932 60.4678 204.766 58.1641 205.084 57.1711C205.402 56.1782 205.839 55.0263 205.998 54.5894C206.196 54.1525 206.554 53.1596 206.832 52.4049C207.11 51.6502 207.467 50.6573 207.626 50.2204C207.785 49.7835 208.142 48.7905 208.42 48.0358C208.699 47.2812 209.096 46.2088 209.294 45.6527C209.731 44.5803 209.85 44.342 211.241 40.6879C212.273 37.9473 216.404 29.7652 217.556 28.1368C217.993 27.541 218.35 26.9452 218.35 26.826C218.35 26.6672 220.177 23.8471 222.401 20.5108C226.175 14.831 228.478 11.8918 231.934 8.11853C233.404 6.52978 233.404 6.52978 230.147 6.41062C227.088 6.25175 225.063 6.45034 214.775 7.6419C210.605 8.11853 210.605 8.11853 209.652 10.1045C209.135 11.2166 208.579 12.4479 208.42 12.8848C207.785 14.5132 206.633 17.0155 204.171 22.2187C201.311 28.2162 200.159 30.639 198.888 33.5385C198.411 34.6506 197.657 36.3188 197.22 37.3118C196.783 38.3048 196.187 39.6552 195.909 40.2907C195.631 40.9659 195.115 42.1177 194.797 42.8724C194.479 43.6271 193.526 45.9705 192.732 48.0358C191.937 50.1012 191.143 52.1666 190.944 52.6035C190.785 53.0404 190.428 54.0334 190.15 54.788C189.872 55.5427 189.514 56.5356 189.355 56.9725C189.157 57.4095 188.641 58.9188 188.164 60.3486C187.687 61.7785 187.171 63.2878 186.972 63.7247C186.774 64.1616 186.257 65.6709 185.821 67.1008C185.344 68.5307 184.51 71.1124 183.954 72.86C183.358 74.6077 182.762 76.5936 182.564 77.2291C182.405 77.9043 182.047 79.1356 181.809 80.0094C181.571 80.8832 181.213 82.2337 181.015 82.9883C180.856 83.743 180.419 85.3714 180.101 86.563C179.187 90.0582 177.837 97.3665 177.837 98.7566C177.837 99.2333 178.274 99.9482 178.83 100.385C180.697 101.855 179.863 103.245 177.082 103.245C175.772 103.245 174.938 103.007 174.183 102.331ZM253.183 70.4372C255.964 69.1662 259.936 65.2738 261.167 62.6523C261.683 61.5402 262.041 59.9912 262.041 58.879C262.041 56.9328 261.286 54.3114 260.809 54.4703C260.611 54.5497 259.538 55.3838 258.387 56.3768C251.595 62.0963 247.464 67.9349 248.338 70.6755C248.695 71.7876 250.403 71.7082 253.183 70.4372ZM222.521 40.0127C230.027 32.3469 235.787 25.0784 240.275 17.4524C244.128 10.8988 244.644 9.15121 243.174 7.52275C242.459 6.72837 241.387 6.45034 241.387 7.04612C241.387 7.24472 241.069 7.72134 240.632 8.15825C237.137 11.9315 226.81 26.9452 221.408 36.1202C220.336 37.9076 216.761 44.8186 216.761 45.0569C216.761 45.6924 217.834 44.7392 222.521 40.0127Z" fill="#B6FFFE"/>
<path d="M93.7128 72.1451C92.6007 70.9535 92.6007 70.7152 94.0305 66.2667C96.4137 58.7996 96.93 57.33 97.6449 55.8207C98.4393 54.1525 98.5982 53.1993 98.1216 53.1993C96.93 53.1993 88.9465 60.5075 85.8882 64.3205C80.407 71.1919 80.0893 71.4699 78.4211 71.4699C75.4025 71.4699 73.8932 67.2994 75.0053 61.858C76.3557 54.9866 79.0566 51.6105 82.5916 52.2857C85.2527 52.7624 87.2784 54.4306 87.2784 56.059C87.2784 56.5356 87.0798 57.4889 86.8017 58.2436C86.1662 59.9515 86.6429 60.3486 87.755 58.9585C89.0657 57.2506 94.388 52.0077 96.6123 50.1807C99.3131 47.9564 100.028 47.6387 102.332 47.6387C104.079 47.6387 104.516 47.7975 105.748 49.0288C107.098 50.419 107.297 51.0147 107.138 53.3979C107.058 54.788 105.112 58.9982 103.444 61.4608C102.808 62.414 102.371 63.2481 102.491 63.3673C102.57 63.4467 103.881 62.3346 105.43 60.8253C108.488 57.8066 111.268 55.7413 112.817 55.3838C113.89 55.1058 116.273 56.0193 117.107 57.0123C118.1 58.2038 117.584 61.2622 115.876 64.8369C112.937 70.9535 114.128 72.4629 119.768 69.6428C122.191 68.491 127.672 64.8766 128.586 63.9233C128.705 63.8042 129.936 62.7318 131.366 61.5402C132.756 60.3486 134.583 58.7599 135.417 58.0052C137.92 55.7413 138.476 55.4632 139.111 55.9796C139.945 56.6945 139.31 57.4492 134.504 61.421C132.24 63.2878 129.897 65.1943 129.34 65.7107C127.633 67.1803 121.357 71.2713 119.371 72.1848C116.154 73.6544 113.294 73.2175 111.189 70.9535C110.037 69.7223 109.64 66.1873 110.315 63.5261C111.149 60.3089 111.229 59.5543 110.712 59.5543C109.322 59.5543 104.675 63.8439 100.187 69.2854C98.9557 70.8344 97.6449 72.304 97.2875 72.582C96.2945 73.3367 94.666 73.1381 93.7128 72.1451Z" fill="#B6FFFE"/>
<path d="M19.7963 98.7964C13.759 97.9623 7.56292 93.196 4.26626 86.9205C2.39948 83.3061 1.72426 81.2407 0.612139 76.0375C-0.02336 73.0586 -0.221954 60.1898 0.29439 57.3697C1.24764 52.2063 1.56539 50.5778 1.88314 49.6246C2.04201 49.0685 2.39948 47.8372 2.67751 46.8443C3.51161 43.9051 4.30598 41.5617 4.94148 40.0921C5.25923 39.3374 5.69614 38.3445 5.85501 37.9076C7.00685 34.9287 10.0255 29.3283 12.3689 25.7934C13.8782 23.4897 15.2286 21.5435 15.3478 21.4243C15.4669 21.3051 16.1422 20.5108 16.7777 19.637C18.287 17.5716 23.8476 12.011 25.913 10.5017C26.7868 9.86615 27.5811 9.23065 27.7003 9.07178C28.0578 8.67459 31.4736 6.52978 32.4666 6.05316C33.0226 5.81484 34.5716 5.41766 35.9221 5.13963C37.3122 4.90131 39.0996 4.42469 39.894 4.06722C42.9126 2.83594 45.8518 2.27988 49.7442 2.24016C57.2113 2.16072 62.8117 5.21906 66.9821 11.6535C70.9937 17.7702 72.6619 27.0644 71.5498 36.9146C70.5568 45.9705 69.3652 50.5381 65.4331 60.3486C64.4401 62.8906 61.4215 68.769 59.6739 71.6685C52.0082 84.3785 41.4827 93.9904 31.4736 97.4856C29.6465 98.1211 23.649 99.3127 22.7355 99.2333C22.5369 99.1935 21.1864 98.9949 19.7963 98.7964ZM28.0181 95.6586C33.7375 94.3479 40.6486 89.8596 46.7653 83.5047C48.6321 81.5982 50.5386 79.4931 51.0152 78.8178C51.4918 78.1823 52.6834 76.5539 53.6366 75.2432C54.6296 73.9324 55.8609 72.0657 56.4567 71.0727C57.5688 69.1662 61.6995 60.7855 62.3747 59.1571C62.5733 58.601 62.8911 57.8066 63.0897 57.3697C63.5663 56.2179 64.6784 52.8021 65.0359 51.4119C67.4985 42.1972 67.6971 40.8468 68.0545 32.3469C68.3723 25.3962 67.8956 22.1392 65.7111 16.2609C63.4472 10.2633 60.0313 6.49006 55.6623 5.21906C53.5969 4.62328 48.1157 4.58356 46.3284 5.17934C43.4289 6.13259 41.5621 7.16528 41.2444 8.07881C41.0458 8.55544 39.2982 10.2633 37.352 11.8124C34.1745 14.3544 28.9316 19.6767 27.3428 21.9406C26.9854 22.4173 26.5087 23.0925 26.2307 23.4102C22.0602 28.6134 17.4926 36.7954 14.6328 44.064C13.9179 45.9307 13.203 47.7975 13.0044 48.2344C12.8455 48.6713 12.2894 50.3792 11.8128 52.0077C11.3362 53.6362 10.7801 55.4235 10.6213 55.9796C8.91335 61.4608 7.72179 72.0657 8.27785 77.0305C8.63532 80.4066 9.2311 83.2663 9.82688 84.7756C12.5278 91.7264 17.7706 95.9763 23.8476 96.0558C25.1186 96.0955 26.9854 95.8969 28.0181 95.6586Z" fill="#B6FFFE"/>
</svg>
