<svg width="43" height="26" viewBox="0 0 43 26" fill="none" xmlns="http://www.w3.org/2000/svg">
<path d="M21.3334 0.0799866C15.6445 0.0799866 12.0889 2.92449 10.6667 8.61332C12.8 5.76882 15.2889 4.70215 18.1334 5.41332C19.7562 5.81899 20.9162 6.99649 22.2002 8.29965C24.2919 10.4228 26.7125 12.88 32 12.88C37.6889 12.88 41.2446 10.0355 42.6667 4.34665C40.5334 7.19115 38.0445 8.25782 35.2 7.54665C33.5772 7.14099 32.4172 5.96349 31.1332 4.66032C29.0415 2.53715 26.6209 0.0799866 21.3334 0.0799866ZM10.6667 12.88C4.97787 12.88 1.4222 15.7245 3.05176e-05 21.4133C2.13336 18.5688 4.6222 17.5022 7.4667 18.2133C9.08954 18.619 10.2495 19.7965 11.5335 21.0997C13.6252 23.2228 16.0459 25.68 21.3334 25.68C27.0222 25.68 30.5779 22.8355 32 17.1467C29.8667 19.9912 27.3779 21.0578 24.5334 20.3467C22.9105 19.941 21.7505 18.7635 20.4665 17.4603C18.3749 15.3372 15.9542 12.88 10.6667 12.88Z" fill="url(#paint0_linear_113_96)"/>
<defs>
<linearGradient id="paint0_linear_113_96" x1="-1.18525" y1="8.27199" x2="35.6644" y2="29.5189" gradientUnits="userSpaceOnUse">
<stop stop-color="#2298BD"/>
<stop offset="1" stop-color="#0ED7B5"/>
</linearGradient>
</defs>
</svg>
